<?xml version="1.0" encoding="UTF-8"?>
<!DOCTYPE svg PUBLIC "-//W3C//DTD SVG 1.1//EN" "http://www.w3.org/Graphics/SVG/1.1/DTD/svg11.dtd">
<!-- Creator: CorelDRAW 2017 -->
<svg xmlns="http://www.w3.org/2000/svg" xml:space="preserve" width="3174px" height="3299px" version="1.1" style="shape-rendering:geometricPrecision; text-rendering:geometricPrecision; image-rendering:optimizeQuality; fill-rule:evenodd; clip-rule:evenodd"
viewBox="0 0 30549400 31758700"
 xmlns:xlink="http://www.w3.org/1999/xlink">
 <defs>
  <style type="text/css">
   <![CDATA[
    .fil0 {fill:#E8E5BE}
   ]]>
  </style>
 </defs>
 <g id="Слой_x0020_1">
  <metadata id="CorelCorpID_0Corel-Layer"/>
  <path class="fil0" d="M27983200 4006500l133400 17600c-92000,-60300 -700200,-312100 -573700,-404800 126600,-92900 303800,-438700 118100,-767700 -185500,-329000 -660800,-466000 -1273800,-1273700 -242900,185200 -251600,717200 -244500,733900 25300,59100 -295300,-219300 -497700,-278300 -202500,-59100 -776000,-33900 -1324400,210800 -548200,244700 -590400,388000 -590400,388000 515100,186800 1430100,1260600 2269100,801400 205500,-112500 362700,-177200 362700,-177200 375500,98000 78800,305800 756500,493100 0,0 217900,-17100 285400,75700 67500,92700 426200,282000 329000,337400l-392400 89100c-279500,-370200 -786100,-572300 -1214800,-388000 -725300,312000 -615700,1164100 -632500,1299100 674200,-442800 506900,13800 1206200,-413300 -170500,397800 195000,944300 236200,1054400 -66300,152300 135400,-166400 306400,-311500 407100,-345100 -153500,-687400 209200,-999000 47100,-44200 532600,-109100 597900,-140400 222000,-106800 947300,326000 1094100,573100 -77200,26000 -798900,354800 -798900,354800 0,0 -219300,345800 -329000,632600 -109700,286900 92800,404800 -8400,531400 -101200,126500 -126600,253100 50600,269900 177100,17000 641000,0 885700,-126400 244600,-126600 143300,-548400 286700,-801500 143500,-252900 160200,-348700 151800,-407700 369100,-188500 1072400,180600 1167700,232500l0 -1016400c-22100,-64900 -88600,-169300 -289000,-326500 -37800,-361900 -222300,-464000 -222300,-464000 -143400,-109700 35400,-84500 195600,-219400 136200,-114700 276600,-247400 315700,-346800l0 -1354000c-36700,-149500 -119300,-463800 -250200,-458700 -50500,2100 -528900,527500 -565200,586300 -105400,170900 -168700,310000 -198300,326900 -29400,16800 -103200,-44400 -69600,-139200 129700,-364500 208500,-505000 -25200,-879300 -21100,-33800 -493500,-548400 -750800,-624300 -198100,-58400 -231700,364200 -202500,527200 29600,164500 50700,316300 67500,354400 17000,37800 12800,96900 -63300,105300 -75900,8400 -80100,-71700 -282500,-67500 -202400,4300 -489200,59100 -611500,-16800 -122300,-75900 -142700,-68700 -143400,-25200 -10900,647600 638100,1272200 1269500,1383200 383800,67500 447000,-37900 501800,-12600 54800,25400 54800,46400 54800,109700 0,63200 29600,301600 179300,413300 152500,113800 -635600,-201000 -1157800,286900 590100,280500 754300,638700 1273900,708400 340800,45900 529500,-77300 548200,-50500 59100,84300 135000,118000 253100,303600 82200,129200 84400,523000 -219400,421800 -202300,-67400 -881300,-717600 -2174600,-1131100l0 0zm2566200 2617600l0 1943300c-40800,58900 -203500,293000 -400100,576900 -227600,328900 -371000,632700 -371000,809700 0,177200 185400,286900 286700,447100 101300,160200 194000,67500 261500,135000 57500,57500 186200,-87500 222900,-131600l0 677400c-27400,-44100 -49300,-90400 -79500,-107200 -91400,-75900 -109700,8500 -126500,59100 -16900,50500 42200,227700 134900,337400 92900,109700 41800,274600 -50900,418000 -60600,93800 -379200,163900 -480500,163900 0,0 -8400,-42100 -33700,-236100 -30000,-230200 168400,-290800 286800,-379600 101300,-75900 75900,-118100 42200,-219300 -33800,-101300 -59000,-202400 -151900,-295300 -92700,-92700 -151800,-261500 -227700,-379500 -75900,-118100 -126600,-134900 -185600,-134900 -59100,0 -42200,33600 -101200,202400 -59000,168600 50600,295200 50600,430100 0,135000 50600,303800 50600,303800 0,0 -50600,210800 -118100,177100 -67500,-33800 -92800,-168700 -109600,-50600 -16800,118100 16800,219300 50500,312000 33800,92900 126600,118100 168800,219400 42200,101200 101300,194000 194000,185600 92700,-8500 430100,-126500 539800,-143500 80500,-12400 127700,6900 147000,18000l0 1213600c-25400,-18700 -98300,-76000 -248100,-219300 -194000,-185600 -135000,-118100 -261500,-236200 -126600,-118100 -312200,-379600 -312200,-472400 0,-92700 -194000,-151800 -194000,-151800 0,0 33700,202500 33700,278400 0,75900 42200,101100 59100,185600 16900,84300 50600,227700 118100,295100 67500,67500 295300,185600 480700,413300 157900,193800 288700,484800 324200,567300l0 1459300c-339400,-187400 -434100,-222100 -745900,-466000 -194000,-151800 -177100,-135000 -362700,-396500 -208100,-293300 -343400,-637500 -278400,-995300 33800,-185600 118100,-371200 177200,-438700 59100,-67500 92700,-134900 101200,-194000 8500,-59100 -42100,-126400 -42100,-126400 0,0 -42300,75900 -143400,177000 -101300,101300 -84500,84400 -92900,210900 -8400,126500 -75900,320500 -134900,438700 -59100,118100 -143400,160200 -474900,362900 -332900,203500 -681100,83000 -1026500,-59200 -143500,-59100 -185600,-25400 -168800,-92900 16900,-67500 73000,-266300 135000,-329000 217500,-219500 610100,-213400 717000,-447000 49700,-108400 151800,-143400 388000,-143400 236100,0 345800,42200 480800,-118000 134900,-160400 194000,-211000 219300,-320600 25400,-109700 -8500,-303700 -8500,-497700 0,-194000 -75800,-362700 -92700,-632600 -16800,-269900 -42200,-548400 -16800,-674900 25200,-126500 -25400,-84300 -219400,17000 -194000,101100 -244800,187400 -287000,263300 -42300,75900 -42000,225900 -42000,335600 0,109500 202400,84300 354400,210800 378000,315000 63200,762800 50600,885700 -25400,244600 42100,413400 42100,413400 0,0 -236100,-33800 -337400,-101300 -201600,-134400 -489700,-526400 -388000,-1071200 45000,-240600 134900,-388100 134900,-447100 0,-59100 -101100,-84400 -101100,-84400 0,0 -135000,168700 -185600,236200 -67400,89800 -17400,592100 -236300,953200 -89500,147900 -685900,494900 -733800,447000 -59000,-59000 -59100,-177100 -67500,-354300 -18000,-379800 78000,-702000 362800,-970100 143400,-134900 286700,-117900 362600,-134900 75900,-16800 210900,-58900 210900,-58900 0,0 33800,-118200 -42100,-101300 -75900,16800 -165500,6300 -300000,100500 -168100,117600 -464400,66300 -661700,-58300 -210400,-133000 -443300,-453100 -170700,-536400 99200,-30400 238200,-54100 449000,-79500 167500,-19900 352400,91600 438300,215200 64900,93300 22500,193500 160600,248800 84500,33800 202500,-25300 354400,-92800 281200,-124900 799900,-473900 818200,-784400 6100,-104100 90900,-1109000 75900,-1121900 -59100,-50700 -59100,-33700 -329000,92800 -269900,126600 -1206200,716900 -1594200,1029100 -402000,323400 -833500,772600 -885700,856100 -84300,135000 0,274200 -160300,814000 -233000,785000 -286000,1060200 10800,1615400 222700,416600 403600,286800 1111100,830800 72300,55600 270000,118500 539900,84300 784200,-99000 700600,373600 1054300,658000 430300,345900 455500,177200 455500,177200 -270600,574000 -1434700,400800 -1805100,-194100 -88500,-142000 -101300,-295100 -160200,-379600 -59100,-84300 -92900,-151800 -92900,-151800l-160200 -84300c110600,210300 147500,334800 286800,573600 59000,101200 84300,345900 50600,590400 -33800,244600 -286700,455500 -362600,531400 -76100,76000 -227900,126500 -329100,84400 -101200,-42200 0,-101200 0,-261500 0,-160300 0,-143300 -118000,-430200 -118200,-286800 -84500,-295200 -8400,-472400 75900,-177200 455500,-210800 455500,-210800 0,0 2900,-134600 -85100,-273900 -74900,-118500 -239000,-242800 -277700,-266000 -88300,-52800 -400700,-184100 -683700,-387900 161600,845300 -223900,609200 329500,1535100 -101300,109700 -312200,59000 -278500,236200 94700,497000 304100,1003900 860400,1104900 92900,17000 168700,50700 261500,-168600 207600,-490500 367800,-292400 733800,-320500 219400,-16900 447100,-219300 506200,-253100 66900,-38300 111100,-42800 137600,-24200 18700,822100 -616500,1117900 -1284800,935200l-261400 16800c0,0 75800,75900 126500,160400 50500,84300 185600,58900 329000,75900 143300,16800 404800,0 548200,75900 143400,75900 236100,59000 388100,295200 151700,236200 219200,210900 447100,278300 227700,67500 193800,92900 84300,194000 -109700,101300 -286900,84500 -539900,151900 -253100,67500 -514500,33700 -674800,-101200 -160300,-135000 -151900,-236200 -227800,-278400 -92200,-51200 129700,284100 -118100,531400 -59100,160200 -143400,126600 -261500,8400 -118000,-118100 -81900,-102600 -191600,-279600 -169100,-273200 51300,-481000 98900,-639800 25200,-84300 -75900,-286800 -168800,-329000 -92700,-42100 -244500,-160200 -438500,-329000 -194100,-168600 -126600,-117900 -135000,-25200 -8400,92700 50600,236200 109600,497700 14400,79300 -156200,414100 -216900,49100 -25400,-151800 -36100,35200 -61500,-226200 -13500,-139900 -119100,-659600 -261500,-464000 -146400,201300 -218800,587700 -118100,835000 92900,227800 101300,270100 151900,337500 72100,96100 584300,-45600 750700,109600 390600,364500 622500,1030700 1037600,1307500 202400,135000 295200,50600 219300,151800 -75900,101300 -202500,109700 -463900,134900 -261500,25400 -573700,-16800 -970100,-261400 -293900,-181300 -442000,-495300 -598900,-818200 -143400,-295200 -118000,-329000 -185500,-497700 -67500,-168700 -126500,-109600 -126500,-33700 0,75900 -42300,160200 -25400,362600 16800,202500 109700,185600 244600,371200 348500,479100 135500,1229500 -25200,1720800 -152000,463900 0,523000 -135000,447100 -134900,-75900 -278400,-185600 -464000,-455500 -185500,-269900 -354300,-582100 -371100,-894200 -16900,-312000 33700,-565100 126500,-767500 92800,-202500 236100,-286900 295200,-337400 59100,-50700 42200,-177200 42200,-177200 0,0 -67500,-25300 -143400,25200 -12200,8200 -135400,384400 -497700,641200 -185100,131200 -379500,143300 -607300,92700 -227700,-50500 -388000,-151800 -632600,-269900 -261300,-126200 13600,-160900 295200,-430100 194000,-185700 430100,-354400 700200,-354400 269900,0 514400,261600 615700,194000 101200,-67500 261500,-210800 295200,-404900 33800,-194000 354300,-1223000 438700,-1391800 84300,-168600 75900,-244500 75900,-244500l-109800 -531400c-293500,-78000 -477600,-161700 -649400,-784500 0,0 -135000,253100 -430200,329000 -89600,23000 -574800,80300 -497600,-101300 37700,-89100 181200,-553400 244500,-632600 168800,-210800 236200,-202400 346000,-177200 109500,25300 210800,-42200 261300,-109700l0 0c191500,-255100 524800,-489800 518900,-637600 -33800,-838100 78700,-1146800 168800,-1484600 0,0 -151900,-202400 -211000,-109700 0,0 -379500,253100 -447000,514600 426600,402000 284700,656900 329000,860400l-71800 401400c-415500,141300 -754400,-91300 -674900,-603100 -209400,232800 -311500,604300 -491300,1093400 -160900,437700 -215100,939300 -200400,1264300 8400,185600 101300,219300 101300,219300 0,0 143400,84400 219300,59000 75900,-25200 185600,-109500 404900,-118100 219200,-8400 413300,143500 565200,269900 151800,126600 303600,354400 379500,362800 75900,8400 185600,33700 50600,160200 -248700,233200 -678600,170100 -978500,84500 -236100,-67600 -320400,-278500 -413300,-371200 -92700,-92800 -134900,-253100 -134900,-253100l-109600 -8400 25200 253100c0,0 109600,84300 261500,210800 326400,272000 331400,710600 362700,1096600 25400,312100 134900,421800 33800,413300 -101300,-8400 -227800,-33800 -404900,-126500 -177200,-92900 -362800,-202400 -514600,-497600 -151800,-295300 -67400,-303700 33700,-590500 101300,-286900 76000,-312100 42200,-430200 -33800,-118200 -42200,-92800 -118100,-33700 -75900,59000 -12500,109900 -25200,236100 -29900,295000 -241100,318300 -396500,362800 -118100,33700 -135000,16800 -303700,-59100 -168600,-76000 -92700,-126500 -42100,-253100 281600,-704200 561900,-176500 641000,-354300 33800,-75900 151900,-320500 118100,-413300 -33700,-92800 -92700,-514500 -75900,-759100 16800,-244700 16800,-210900 -59100,-194000 -75900,16800 -243000,187700 -453900,331000 -210800,143400 -364200,166600 -448700,259400 -84300,92800 -42100,75900 -193900,320600 -151900,244500 -128100,272300 25300,354200 737300,394100 -14300,1342100 33800,1822000 8400,84400 -109700,33800 -236200,-67500 -299700,-239700 -522800,-625100 -571700,-1004400 -57200,-445000 284000,-706500 386100,-859800 50600,-75900 67500,-126500 92700,-227700 25400,-101300 17000,-109700 -67400,-126500 -84400,-16900 -84400,50600 -143500,236200 -59000,185500 -59000,244500 -151700,371100 -227600,310300 -757000,379600 -1105100,379600 -295200,0 -674800,-151800 -826600,-219300 -151800,-67600 -523000,-413400 -523000,-413400 0,0 151800,-101100 379600,-168600 227700,-67500 624200,-447100 1003800,-556800 724600,-209300 727300,67800 1079700,118100 59000,8400 143300,-92700 143300,-92700 0,0 -101100,-236300 -194000,-236300 -608900,0 -494000,-65500 -980200,-374900 -243700,-155000 -748800,-167100 -793700,-212000 0,0 273700,-369500 576100,-475900 510100,-179400 1417200,-269800 1417200,607300 0,261500 -16900,227800 25300,312100 42200,84400 168700,202500 312100,168800 143400,-33800 354300,-84400 447100,-118100 92800,-33800 236100,-75900 379500,-160400 143500,-84300 278300,-236100 430300,-362600 151800,-126500 168600,-312100 286700,-582100 118100,-269900 210900,-708400 371200,-961500 160200,-253100 168700,-312100 168700,-312100 0,0 143300,-143400 -126600,-25300 -269900,118000 -722300,245200 -961500,278300 -351600,48700 -421100,194500 -489300,278400 -109600,134900 -238500,328800 -105400,462300 228600,229600 372900,644300 274100,878800 -55000,130700 -342900,543200 -450100,569700 -83500,20800 -250100,-122600 -326000,-249100 -75900,-126500 -151800,-295200 -177000,-455500 -48000,-304000 28500,-633600 295200,-818200 109700,-75900 126500,-92800 177100,-134900 33100,-27500 247600,-407000 236200,-480900l-362700 92800c35600,286000 -266800,460500 -472300,590500 -244200,154200 -610500,-107500 -963000,-46700 -1002400,172900 -1432900,-119800 -1761600,-543800 -146400,-188700 -219400,-362800 -67600,-345800 377800,-5200 561000,-208000 779400,-253700 562400,-118300 631500,207500 1380100,-134300 337600,-154200 717000,253100 877200,413300 201200,201200 785700,42100 1029100,-67500 0,0 -371200,-227700 -472300,-244700 -577100,-96100 -959200,26300 -1687100,-767500 -660100,-720000 -500000,-1627800 -194000,-2083600 8500,59100 7500,130000 134900,346000 529600,897100 938800,607000 1636500,1231400 297500,266400 274500,1037600 295100,1062900 75900,92700 135000,118100 278400,177200 143500,59000 296300,107300 380700,132700 84300,25200 226700,2200 226700,-56900 0,-59000 -261900,-170000 -354300,-295100 -249000,-337000 -297700,-733200 109700,-1256900 118100,-151900 269900,-312100 303600,-253000 33800,59000 194000,151700 312100,312100 118100,160200 185600,539800 134900,801300 -50600,261500 -219200,371100 -269900,455400 -50600,84400 -25200,151900 33800,185600 151400,86700 853300,-499100 995400,-641000 126400,-126500 118000,-194000 118000,-194000 0,0 -84300,-143500 -185500,-388000 -117100,-282800 101400,-730600 326000,-794100 17700,-5000 28400,13900 62000,43300 58700,51400 203900,149900 280000,265100 87700,132800 104500,279500 133300,266400 109600,-50600 438600,-405000 700100,-691800 261500,-286700 835100,-590400 911000,-641100 277000,-184700 -454100,-203100 -549200,-213500 0,0 -226900,196700 -345000,306400 -118000,109700 -472300,210800 -548200,227700 -75900,16900 -101200,67500 -177200,168700 -75900,101200 -118000,151800 -219300,135000 -101100,-16800 -50600,-75900 -67500,-244700 -16800,-168600 16900,-92700 92900,-143300 75900,-50700 25200,-168700 118000,-143400 92800,25200 202400,33700 362800,16800 126600,-13300 640000,-320900 404800,-421700 -118100,-50600 -272900,-32900 -458500,-108800 -185600,-75900 -207800,41300 -317500,150900 -109600,109700 -388100,211000 -388100,211000 -216600,148200 -410500,275200 -432700,389100 0,0 409800,448000 -162200,834300 -118500,80000 -252600,350600 -273000,306900 -16100,-34700 -135700,-158800 -186500,-315700 -129200,-399600 122500,-627200 278500,-767600 31000,-27900 14700,-26100 -25000,-10600 -231500,90500 -403400,189300 -875700,325500 -54100,57400 -118700,852500 -1267200,469500 -151800,-50500 -189800,-101100 21000,-320500 210900,-219300 405700,-513000 696000,-514500 290200,-1500 329000,126500 354300,168700 227800,8400 742200,-177200 1029100,-286800 286800,-109700 379500,-210800 674800,-379600 295200,-168800 558100,-489200 362600,-556700 -857600,-409000 -1389500,-970000 -1464400,-953200 -74800,16800 -182900,160300 -382600,269900 -199500,109700 -432500,118100 -432500,118100 0,0 -41600,84300 16700,135000 58100,50600 357500,202400 432500,261500 74800,59000 166300,421700 141300,590400 -24900,168800 66500,236300 66500,236300 0,0 -24800,33700 -507300,25200 -482400,-8400 -457400,-67400 -565500,-151800 -108100,-84300 -124800,-126500 -141400,-16900 -16600,109700 83100,211000 41600,472500 -41600,261500 -349300,295100 -515700,379500 -82300,41800 -320300,201900 -400600,126500 13800,-83400 67600,-244700 42200,-345800 -162600,-650200 16000,-715600 227800,-860400 141000,-96400 143400,-244700 143400,-244700 0,0 -151800,-8400 -278300,126600 -126600,134900 -109700,151800 -312200,303700 -202400,151800 -649500,75900 -1012200,-50700 -362700,-126500 -691700,-447000 -818100,-632700 -126600,-185400 -42300,-75800 261300,-67400 303800,8400 801500,-371100 1155700,-430200 354300,-59000 683200,168700 733900,168700 50600,0 -16800,-219300 -16800,-219300 0,0 -286900,-59100 -573700,-227700 -286700,-168800 -480800,-607400 -607300,-986900 -126500,-379600 92700,-700200 92700,-700200 0,0 152000,210900 286900,371200 135000,160200 539800,219300 539800,219300 0,0 -168700,-67500 -320500,-244700 -151800,-177000 -135000,-463900 -135000,-784400 0,-320500 50700,-168700 50700,-168700 0,0 75900,-25300 286700,160200 210900,185600 421700,168800 759100,455500 337400,286900 219400,556800 227900,641100 8400,84400 143300,109700 261500,219300 117900,109700 134900,8400 134900,-59100 0,-67400 0,-92700 -101300,-210800 -101100,-118000 -168600,-244500 -278300,-556700 -123400,-350900 408400,-1109400 641100,-1020700 98300,393200 -54800,202400 177100,852000 126500,354300 106600,507800 -8500,683300 -115000,175400 -75800,109600 -134900,177100 -59100,67400 8400,168700 118100,312100 109700,143400 219300,118100 278400,84300 59000,-33700 -84400,-134900 -84400,-134900 0,0 -59000,-210900 0,-210900 342600,0 6500,-193500 809800,658000 421800,446900 1341100,936200 1535200,1003700 194000,67500 388000,143400 337400,75900 -50600,-67500 -67500,-151800 -143400,-354200 -75900,-202500 -219300,-472400 -219300,-472400 0,0 -84300,-92800 -227700,-92800 -143500,0 -312100,84400 -489300,-59100 -177100,-143400 -143400,-92700 -244700,-185500 -101100,-92800 -252900,-50600 -160200,-185600 92700,-134900 375700,-206300 506200,-202400 130300,3800 227700,75900 227700,75900 0,0 50600,-151800 -75900,-379600 -360100,-648000 593500,-902900 573600,-733900 -14700,144700 69600,245900 196000,515600 126500,269800 92700,480600 8400,708300 -84300,227600 -168600,252900 -126400,312000 42100,58900 101200,235900 109600,168600 8400,-67500 50600,-151800 126500,-463800 75900,-311900 472100,-370900 792500,-396200 320300,-25400 345700,151700 345700,151700 -1800,3300 -370400,587900 -446800,674500 -126400,143200 -505900,134900 -581800,126500 -75900,-8400 -109600,126400 -135000,227600 -25200,101100 227700,666100 438500,699800 210800,33800 1247800,-8500 2040400,-463700 742900,-426800 1609600,-1179500 1715000,-1272000zm-6675700 622200c0,0 -59100,-42100 -219400,-118000 -160200,-75900 -320600,-151800 -413300,-219400 -92700,-67500 -210900,-92700 -371200,-109600 -160200,-16900 -253000,25300 -253000,25300 0,0 0,261500 0,396400 0,135000 33700,278400 33700,278400 0,0 50700,42200 160300,67500 109600,25300 641000,0 851900,-160200 211000,-160400 211000,-160400 211000,-160400l0 0z"/>
  <path class="fil0" d="M5100 5710700l-5100 -102800 0 -211700c45200,-10800 230600,-55800 377700,-107200 168600,-59100 396500,-177200 413300,-286900 16800,-109500 -50600,-194000 -109700,-303600 -181900,-337700 100000,-774700 362800,-894100 92700,-42100 109500,-135000 219300,75800 109700,211000 194000,303800 194000,413500 0,109500 -59100,244500 -101300,312000 -42100,67500 -25300,134900 -25300,134900 264600,-455000 1395400,-110400 1585900,565300l-464000 50600c-1241600,186800 -1038600,-102700 -1459300,-135000 -109700,-8500 -421400,175900 -497300,235000 -75900,59000 -285700,110900 -388300,169900 -102700,59100 -102700,84300 -102700,84300l0 0 0 0zm52700 -649600l-52700 -33700 0 -842000 152600 -271900c-54400,-213100 85100,-657500 -26100,-900000l-126500 33700 0 -3047200c334700,205100 381800,380700 504900,770800 50700,160200 36300,435400 -48000,561900 -84400,126600 -269900,337400 -269900,337400l50500 177200 295300 -118100c0,0 156000,-46400 181400,-198200 25300,-151800 -109700,-341600 71700,-560900 313300,-379000 1049200,-292300 1484500,-118100 -358400,227900 -327400,928600 -1180900,1020600 -136400,14700 -413300,-33700 -472300,-33700 -59100,0 -210900,126500 -210900,126500 0,0 -42200,210900 -59100,286800 -16800,75900 33800,337400 50700,447100 16800,109600 50500,548200 16800,700000 -33700,152000 42200,185600 42200,185600 0,0 253100,-143300 329000,-244600 75900,-101200 362700,-177100 455500,-244600 92800,-67400 219300,-219400 261500,-303700 42100,-84300 8500,-160200 -92800,-253000 -314100,-288000 -31600,-648800 295300,-767600 92700,-33800 210800,-84300 210800,-84300 0,0 -25400,135000 50500,253000 163700,254400 80000,576200 -143400,767600 -59000,50700 -143300,101200 -92700,160200 50700,59100 194000,33800 227700,-50500 33800,-84400 84400,-244600 160400,-337500 338300,-413400 1254900,-250300 1518300,177200 33700,59000 -371200,84300 -472400,151800 -101200,67400 -236200,151900 -388000,253000 -151900,101300 -480900,151800 -615900,84500 -134900,-67500 -261500,-59100 -312000,-67500 -50600,-8500 -185600,16800 -185600,16800l-202400 92800c0,0 59100,42200 177200,75900 118000,33800 246900,-31300 379500,-16900 565200,61900 996600,343300 961600,987000 -4200,77600 -281300,-55000 -542800,-97200 -261500,-42300 -402000,-37800 -570600,-189600 -168800,-151900 -303800,-438700 -312200,-497700 -8400,-59100 -160200,-75900 -269900,-84300 -109700,-8500 -160200,0 -244500,84300 -84500,84300 -379600,506100 -480900,649500 -101200,143400 -227700,463900 -312000,590500 -84500,126500 -193400,371000 -193400,371000l0 100z"/>
  <path class="fil0" d="M5100 6351700c0,0 549800,-396400 617300,-455400 67500,-59000 92700,-202500 92700,-202500 0,0 -75900,-67400 0,-101200 75900,-33800 227800,25300 227800,25300l202500 -109600c0,0 996000,-630700 1295100,-775200 299100,-144300 484700,-262400 552200,-304600 67500,-42100 177000,-202400 286700,-447000 109800,-244600 539900,-565200 649600,-691700 109500,-126600 101100,-320600 118000,-539900 16900,-219200 -23600,-157100 -118000,-219200 -562200,-369700 -472400,-670700 -472400,-1020800 0,-183100 80000,-211200 25300,-556600 445200,102700 1062100,121900 1003700,995300 -9300,139300 -118100,413300 -168600,514600 -50600,101100 -25400,151800 -33800,261500 -8400,109600 -16800,194000 -16800,194000l168600 -185600c33800,-649500 672600,-1175400 1231600,-1214800 480800,-33600 919400,-8400 1088100,101300 168700,109700 -244600,185600 -388100,362700 -621600,767900 -737400,936400 -1695400,936400 -67400,0 -126500,25300 -185600,84300 -59000,59100 -278300,253100 -278300,253100 0,0 177100,84300 261500,59000 84300,-25300 354100,-185000 522300,-214000 1188900,-204100 1569600,403600 1611800,779100 -869000,-211300 -1123800,477100 -1779900,-168600 -195700,-192700 -328900,-109700 -404800,-168800 -75900,-59000 -354300,-67400 -354300,-67400 0,0 -151900,92700 -303700,244600 -151800,151800 -286700,312000 -312100,413300 -25300,101200 -33700,160200 42200,194000 75900,33700 92700,-92800 286800,-126500 194000,-33800 168700,-109700 362700,-151800 194000,-42200 303600,-101300 371100,-67500 67500,33700 101300,84300 25400,118000 -75900,33800 -126600,25400 -303700,126500 -177100,101300 -337400,92900 -396500,185600 -59000,92800 -25200,135000 118100,151800 143400,17000 303800,33800 421700,109700 118200,75900 185600,25300 244700,25300 59100,0 253100,-25300 253100,-25300 24600,-163900 97600,-369300 269900,-421700 160900,-48900 447100,42100 506200,67500 59000,25300 126500,16800 -42300,219300 -168700,202400 -185600,227700 -185600,227700 0,0 286800,76000 362800,126500 75900,50700 278300,118100 438500,312200 160400,194000 253100,472300 312200,598800 59000,126600 -135000,-16800 -320600,16900 -185600,33800 -404800,59100 -615700,-59100 -210900,-118000 -506200,-320400 -615700,-438500 -109700,-118100 -109700,-160200 -261500,-303700 -151900,-143400 -303700,-126600 -303700,-126600 0,0 59000,202600 109700,236300 50500,33600 219200,118100 354200,269900 134900,151800 204800,310700 143400,582000 -122400,540100 -263000,723900 -767600,700100 190400,-643000 -391900,-1136500 33700,-1560500 -16800,-50600 -219300,-295300 -303600,-337400 -84400,-42200 -438600,-109700 -556800,-92800 -118100,16900 -447100,194000 -514500,219400 -67500,25200 -1138800,733800 -1189400,818100 -50500,84400 354400,539900 354400,539900 0,0 42000,84300 168600,101300 126500,16800 236200,-50700 345900,-75900 109600,-25400 16900,-291100 126400,-459800 109700,-168700 371200,-291100 556800,-307900 185600,-16800 362700,-59000 447100,-151800 38300,-42200 67600,-56300 89100,-49400 214300,507200 -262800,1295100 -911600,1108000 -130600,-37700 -290900,46300 -350000,63300 -59100,16800 -177200,67500 -177200,67500 0,0 33800,8400 143400,33700 109700,25300 193400,56800 295300,25300 802100,-248600 1778900,360700 1687000,1197800 0,0 -350100,-295300 -670600,-350100 -733200,-125400 -771700,-103600 -1229500,-681500 -50600,-33700 -411200,-124100 -411200,-124100 0,0 -27300,27500 57000,128700 84400,101300 297400,149700 440800,335300 143300,185600 143900,399200 295100,666300 199300,351600 -50900,623700 -303600,885800 -124100,128800 -194000,177100 -244600,177100 -50700,0 -455500,-421700 -539800,-598900 -84400,-177100 -50700,-278400 8400,-421700 59000,-143400 -42200,-202500 -92800,-396500 -50600,-194000 -25400,-269900 84400,-362800 109700,-92700 168600,-134900 160200,-210800 -8500,-75900 -168700,-329000 -278400,-404900 -109500,-75900 -936300,-202400 -1138700,-67500 -202400,135000 -634100,624200 -634100,624200l0 -666400 0 0z"/>
  <path class="fil0" d="M5100 10628700c94400,-49500 399700,-159300 307500,-320600 -33800,-59100 -42200,-447100 -33800,-497700 8400,-50500 42200,-253100 33800,-379500 -8500,-126600 -92900,-337400 -168800,-413400 -75900,-75900 -138700,-67500 -138700,-67500l0 -523000 96500 135100c52900,73800 74300,356700 122300,425900 16900,24200 46500,143400 105500,59100 59100,-84400 54900,-118200 -21000,-219300 -147900,-197200 -132500,-677400 42100,-852000 290800,-290800 440800,-358000 830900,-472300 0,0 -59100,274100 -46400,421700 27500,320200 -27900,739600 -312200,936200 -109500,76000 -257100,80200 -312000,135000 -54800,54900 -46400,135000 -42200,177200 4200,42100 16800,164400 42200,194000 25300,29500 147600,-25400 177100,-54800 29600,-29600 147600,-139200 194000,-253100 46400,-113900 101300,-236300 392200,-286800 291100,-50600 274200,-202400 548300,-185600 187200,11600 492100,236900 535800,425900 0,0 -147800,-54800 -261600,-37800 -240700,35600 -339500,681600 -957400,569300 -118800,-21600 -341600,-160300 -371200,-135000 -29500,25400 -231900,185600 -274100,253100 -42100,67500 -67500,409100 -21100,485100 46400,75900 50600,92700 97100,101100 701300,-576000 1231000,-718200 1400200,-809700 101200,-54900 392300,-75900 463900,-126500 71700,-50700 172900,-151800 181300,-181400 299100,-1047000 1781300,-1177000 2547500,-666400 50600,33800 206800,109700 350200,236200 143300,126400 25200,75900 -270000,160200 -295300,84400 -809700,303800 -961600,489200 -151800,185600 -582000,244700 -818200,177200 -236200,-67500 -624100,-143400 -700200,-160200 -75900,-17000 -92700,50500 -236100,101100 -143400,50700 -286700,76000 -337400,126600 -105900,105900 655700,291000 732900,316200 1028700,-230400 1704900,573700 1704900,1387700 0,109600 -50600,168700 -50600,168700 0,0 -210900,-261500 -455600,-337400 -748400,-232300 -1474800,-427300 -1379100,-1037600 -44200,-63900 -569300,-227700 -636800,-278300 -114800,-86100 -409600,-33300 -577900,88600 -96600,70000 -206600,181300 -206600,181300l202400 8400c0,0 14400,90100 -44700,157600 -59000,67500 -56500,19600 -166100,36400 -177200,27400 -596100,278500 -649500,438700 -17000,50600 59000,75900 151700,75900 92800,0 447100,16800 573700,16800 126500,0 278300,-42100 354200,-151800 74100,-106900 -209800,-378000 122400,-565100 119000,-67000 232500,-142800 232500,-142800 209000,292100 371600,440800 50000,648900 -143400,92800 -312100,118100 -312100,118100 0,0 -109600,-33800 -101200,59100 8400,92700 0,210800 126500,177100 681300,-181800 1198900,-289200 1687000,430200 160400,236200 151900,236200 151900,320500 0,84300 -8500,-92700 -320500,-109700 -312200,-16800 -565200,84500 -725400,50700 -160400,-33700 -337400,-92800 -438700,-177200 -101200,-84300 -320600,-320400 -320600,-320400 -218600,-116700 -239000,-134700 -501800,-149900 0,0 54800,116100 215100,200400 302900,159400 660500,454400 691600,826700 18800,224100 -65700,699600 -303600,759100 -142700,35800 -89600,-493300 -354400,-674800 -282900,-194000 -432300,-59900 -404800,-700200 5100,-117300 33800,-177000 -25300,-252900 -59000,-76100 -135000,-143500 -185600,-143500 -50600,0 -447000,42200 -514600,42200 -285700,0 -464400,1097100 -505700,1299100l0 -1733500 0 100z"/>
  <path class="fil0" d="M5100 16357300c0,0 510200,-329000 603100,-337400 92700,-8400 126500,0 194000,59000 67500,59100 256600,251900 391600,319400 576600,288300 1378200,-387200 2560600,-150600 0,0 -33700,-244700 -227700,-497700 -194000,-253100 -539800,-438700 -767600,-489200 -194600,-43300 -1656100,-273800 -1822000,151800 -64900,238100 -262400,406400 -539800,523000 -160300,8400 -126500,-101300 -33800,-269900 92700,-168800 269900,-447100 362700,-489400 1745600,-309500 827900,-1080200 1982200,-2108700 -1456000,-377300 -1237600,518300 -2090900,814100 -345000,245200 -306900,799800 -186500,1016300 84300,151900 42200,160300 -33700,286900 -76000,126400 -194000,261500 -194000,261500 -65000,-258200 -149800,-1031300 25300,-1366600 211100,-86900 433400,-500200 278300,-927800 -90500,-249700 -243400,-450800 -501800,-556800l0 3762100 0 0z"/>
  <path class="fil0" d="M5100 21591300c0,0 240300,-539800 712600,-894100 472500,-354200 565300,84400 565300,84400l168600 168700c0,0 42200,109600 -16800,135000 -59100,25200 -126500,101100 -177100,168600 -179800,239700 156700,543500 168600,624300 33800,227700 -59000,320500 -84300,371100 -25200,50600 274900,3400 371200,-92800 314500,-314300 343100,-770400 118000,-995300 -75900,-75900 -96900,-50700 -147600,-126600 -50600,-75900 -113900,-126500 -88500,-147500 25200,-21200 105300,-29600 168600,12600 63300,42200 152000,109700 181400,134900 29500,25300 21100,139200 42200,215100 103000,371100 623400,601500 974200,641100 96000,-397400 -39700,-680800 -261500,-873000 -63200,-54900 -189700,-126500 -269900,-168800 -80100,-42100 -109600,8400 59100,-46300 183300,-59600 395200,-278000 358500,-489300 -16900,-96900 -25300,-126500 -42200,-160200 -16800,-33800 -96900,54800 -185600,75900 -118600,28300 -573200,24300 -636800,215000 -75500,226400 -60200,366000 -295300,253100 -210800,-101100 -295100,-139100 -345800,-185600 -50600,-46400 -173000,-113800 -206600,-130700 -197300,-98700 744900,-471100 1539400,-531400 406800,-30900 1223000,-8500 1290600,12600 67500,21200 -21200,-71700 -33800,-126500 -12600,-54800 -33700,-46300 -75900,-84400 -42200,-37800 -135000,-21000 -223500,-59000 -88600,-37900 -265700,-10200 -248800,-42100 37800,-72100 267600,-230300 522900,-232100 48100,-200 164500,50700 198300,88600 33600,38000 54800,76000 59000,211000 16700,535300 313600,464300 666400,581900 75900,25400 202400,59000 257300,118100 54700,59100 134800,164600 172800,194000 38000,29600 135000,-16800 135000,-244600 0,-560100 -534400,-947000 -860400,-961600 -64200,-2900 -105400,67500 -189800,29500 -84300,-37900 -135000,-50500 -168600,-84300 -33800,-33700 71700,-75900 101100,-92800 29600,-16900 181400,-21100 215200,-16900 127900,108700 651300,297000 965800,105500 157400,-95900 363000,-177400 653700,-143400 -25300,-153900 -122300,-337600 -295200,-421900 -354300,-172700 -940100,-309300 -1258600,82800 -54800,67500 -95300,136600 -141700,191400 -68600,81100 -449700,160200 -556700,168700 -366900,29400 -612300,341400 -683200,227700 -63300,-101100 130800,-581900 160200,-657800 71600,-184000 594600,-518700 750700,-432400 9300,5200 293600,534600 839400,141300 176700,-127300 97000,-199300 316800,-199300 84300,0 296600,-379900 296600,-379900 -489100,-471400 -604100,-166600 -1094200,-116600 -313600,31900 -236900,305000 -501800,371000 -186400,46600 -230000,51900 -426100,185600 0,0 8400,-172800 50700,-282500 42000,-109700 88500,-278300 181200,-261500 213900,38900 623200,-194400 696000,-396500 105300,-292500 125100,-511000 92700,-818100 -16800,-160400 42200,-223600 67500,-299500 -159000,-124700 -626000,-9900 -750700,290900 -111300,268600 -293500,229500 -384200,406500 -229500,446800 20800,653100 63700,757600l-143400 253100c-120400,-70200 -137900,-180100 -240300,-286700 210300,-194500 107000,-415100 37800,-590500 -89000,-226000 -316400,-353500 -868200,-552900 -41400,406500 -28700,824100 277800,1130600 168700,168800 286800,21200 388000,113900 101300,92700 269900,253100 269900,337400 0,84300 -25200,396500 -59000,472400 -33700,75900 -202500,354300 -210900,506100 -8400,151800 -118100,354200 -118100,421700 0,67500 -24600,69300 -404900,101300 -478100,40100 -708300,53800 -1248400,269900 -59100,-287400 -89200,-668600 101300,-1189300 33900,-92800 134900,-126600 244500,-177200 109700,-50500 185600,-135000 270000,-118200 84400,17000 42100,-8400 143400,109800 269300,314200 584700,288300 877200,-4300 23400,-23400 301500,-372200 295300,-388400 -19200,-49600 -108700,-85700 -160300,-121900 -159000,-111300 -632300,-241900 -902600,-126600 -206400,88300 -275900,169900 -337400,354400 0,0 -118000,101200 -202500,135000 -84300,33600 -67400,-16900 -59000,-126600 8400,-109700 76000,-261500 101300,-320500 25200,-59100 118100,-143400 194000,-151800 75900,-8400 219300,33600 337400,-75900 189700,-176200 159800,-546800 75900,-784500 -34400,-97400 -75500,-334300 -152700,-365800 -87200,-35800 -529300,238500 -593800,298300 -241400,224000 -273700,382500 -122300,666400 53900,101000 175300,165300 147600,286700 -31000,135000 -172900,388100 -172900,388100 0,0 -42200,-250900 -164500,-468200 105500,-282100 -5700,-921500 -569300,-1142900 -236300,-92900 -561000,0 -561000,0 -1800,4700 -3500,9500 -5100,14300l0 337700c35500,168300 110500,338500 186500,440900 167300,225500 310100,385000 843500,455500 124400,104300 127300,284700 185500,430100 -169200,535700 -336600,1171900 -298100,1730500 -112600,65400 -531900,273600 -840600,597600 -80900,85000 -71700,126600 -71700,126600l0 944700 0 0z"/>
  <path class="fil0" d="M438000 20283800c-24400,-330300 -7900,-657500 328400,-849700 59100,-33700 163100,-14800 163100,-14800 0,0 210200,78000 319800,145500 521100,320700 706500,-285500 953100,-320500 297400,-42100 354400,-208800 354400,-208800 0,0 -269900,-101100 -404900,-185600 -135000,-84300 -419700,65400 -537700,90800 -118200,25200 -432000,-48400 -617500,67500 -185600,116000 -160700,204500 -211400,255000 -50600,50700 -107000,129200 -143300,76000 -36500,-53200 42200,-202500 54800,-240400 12700,-38000 25300,-105500 71700,-151800 46300,-46400 113900,-75900 147600,-71700 594800,74300 241100,-999200 -210900,-970100 100000,382100 -173100,492600 -134900,670600 25200,118100 84300,206600 96900,253100 24200,88500 -51800,236200 -122300,194000 -73500,-44200 -159600,-178300 -113800,-253100 94900,-155300 10300,-399600 -130700,-514600 -113900,-92700 -295300,-194000 -295300,-194000l0 721200c108500,51500 227700,64100 341600,105500 94400,149800 134300,171800 168700,358500 0,0 -59000,139100 -80100,198200 -59800,167600 -221200,459500 -236200,624300 -8400,92700 -56300,274500 -50600,328900 5600,54400 -8500,101200 0,130700 8500,29500 244600,-25300 244600,-25300l44900 -219400 0 0z"/>
  <path class="fil0" d="M30068500 17956300c-163000,49100 -364300,147000 -549100,266200 -140600,91000 -360300,259900 -511700,393700 -73000,64700 -244100,226700 -291700,275900 -17600,18700 -53500,55900 -79200,82500 -25800,26100 -50000,51800 -53500,56300 -3700,4500 -17500,19600 -30700,33000 -41600,42600 -138800,151400 -144300,161200 -4600,8000 -17200,11800 -57300,18900 -101600,18600 -181700,61800 -272300,149000 -74500,71600 -160600,196700 -201500,293200 -28200,65700 -48600,100100 -79400,132600 -67300,71600 -156900,192200 -205000,276300 -17800,30700 -48800,98500 -65800,143500 -10800,29400 -40100,147700 -38700,156200 600,2800 -100,11200 -2100,19200 -2100,13100 -4000,14000 -18900,11600 -13600,-2000 -18300,-6700 -27800,-29300 -17200,-41100 -31700,-54600 -60700,-56600 -16900,-1400 -25000,-4500 -25600,-10400 -200,-4800 7800,-27900 18500,-51800 26800,-61000 27500,-122300 1300,-136500 -8000,-4600 -8700,-9000 -6600,-31300 5000,-50200 -11700,-97900 -34700,-99400 -7800,-900 -10500,-3600 -8400,-10600 4300,-16200 -10000,-103700 -19400,-119200 -15200,-23700 -25000,-25900 -40200,-9300 -13600,13900 -14100,14000 -15900,3800 -1100,-5800 -1500,-23400 -900,-39600 1000,-31600 -15400,-87200 -38900,-132200 -13900,-26200 -23400,-30000 -19400,-7500 2700,16000 -5300,101800 -9500,102600 -1700,300 -12400,-13800 -23800,-31200 -20800,-30500 -20900,-31000 -22900,-79800 -1000,-27900 -7600,-72000 -14700,-102800 -10900,-46000 -16600,-59400 -35200,-86000 -26100,-36200 -38200,-45100 -46800,-34200 -9200,10500 -14200,4200 -19400,-25800 -2700,-15000 -12800,-44000 -21700,-64000 -18100,-39400 -61600,-105000 -65600,-98800 -2100,3200 -4400,46000 -5600,120700 -1600,79200 -18300,231200 -37800,340500 -25700,147400 -27600,152800 -49300,185800 -18300,28000 -34700,72400 -38500,104000 -1100,9500 -2100,9700 -18800,3200 -17000,-5700 -17500,-5600 -29200,9600 -12200,16000 -26200,60900 -28200,87800 -300,7700 6700,72200 16600,143700 19100,149100 45200,253100 81800,326100 11200,22900 29500,69900 41000,104300 11100,34500 26500,75300 34100,90500 12000,23800 19500,57300 48300,220500 32500,184100 33500,196600 35100,283500 500,50100 -800,102200 -2100,116200l-3300 25400 -32900 7500c-19100,4500 -32700,5300 -33300,2000 -1200,-6400 -36700,-10700 -59000,-6700 -11900,2100 -14200,900 -9100,-4000 5300,-4700 3800,-6700 -8700,-8900 -9200,-1600 -21400,-2200 -27900,-1100 -11700,2000 -34800,-4300 -24300,-6800 3300,-500 1200,-2900 -3500,-4900 -4800,-1800 -20300,-1900 -33700,400 -13300,2400 -29500,1500 -36200,-1800 -6000,-3300 -20600,-4600 -31300,-2800 -14500,2500 -20800,1500 -21800,-4400 -1100,-5800 -7300,-7000 -24400,-4000 -12300,2200 -28500,1200 -35800,-2000 -6500,-3300 -22300,-5400 -35100,-5400 -12600,0 -33000,-2500 -44600,-5900 -11800,-3900 -26900,-5800 -33900,-4500 -7000,1200 -11600,-200 -10500,-3100 2900,-6100 -18600,-5000 -130800,6400 -41700,4100 -86500,6500 -99900,5600 -16400,-1600 -47500,2900 -94200,13300 -78600,17700 -80100,18500 -220100,116600 -6300,4400 -25500,27100 -41800,50400 -24200,34600 -33600,53900 -47100,102100 -26300,95200 -26400,116100 1400,155300l18300 25500 -5100 33500c-14500,99700 18900,254900 68100,317400 53400,68400 104500,110700 165900,136900 52600,22600 146500,42500 144400,30800 -200,-1600 -8600,-11700 -18300,-22800 -21800,-23700 -59900,-77100 -61400,-85100 -600,-4300 18400,-8800 68000,-15400 117500,-16200 150900,-29800 239400,-100100 7300,-6200 28800,-15000 47400,-20000 33700,-8700 33700,-8700 61800,9600 36100,22900 93300,47000 167800,69700 51400,15800 64600,22300 92100,46700 40000,35400 138400,102500 183300,125000 25500,13200 39700,25000 60300,51700 33200,43800 123200,138200 172200,181500 20100,17400 72500,57800 116300,89900 73900,53100 83800,61900 126800,118300 41400,54000 106100,147900 130500,189500 26100,44900 61800,124800 75900,170300 17600,56400 17700,73000 1700,69700 -5100,-1300 -20700,-1800 -34200,-500 -21300,1600 -27500,4200 -39400,18400 -10500,12400 -19900,17900 -37000,20900 -13400,2400 -29800,9700 -38300,17300 -30100,26800 -85100,137500 -95600,193400 -7000,38800 -1000,89000 12700,100400 21500,18300 81200,18800 93400,1200 4500,-6300 6800,-5700 13200,2100 14600,17200 36500,29500 49400,27100 28800,-5000 84300,-60100 95200,-95100 7400,-24000 5700,-24200 -15700,-2100 -26600,27700 -32000,22600 -32700,-28000 -100,-44600 19700,-120900 34100,-132400 4900,-4200 15800,-7700 24000,-8000 16800,-1300 17500,1900 24200,92900 3500,51700 700,64300 -20400,94600 -31300,44200 22500,14700 57300,-31700 14400,-19100 27700,-34600 29200,-34900 1100,-300 6500,11600 10800,26700 4700,14700 12100,31000 15700,35900 15000,19000 64800,23400 92600,8600 8500,-4900 12200,-2300 23400,14000 15100,23300 26400,27900 61900,26100 25700,-1900 26600,-2500 60000,-42100 18700,-22000 45100,-47600 58900,-56700 30600,-20800 92600,-97500 97800,-121500 3500,-14500 1200,-25000 -13700,-62100l-18000 -45400 28000 -57400c15400,-31400 35100,-79500 43500,-107000 12300,-40300 16700,-49400 23400,-45600 18500,10600 101600,88100 168400,156800 122600,125800 163500,173800 265800,309200 54600,71900 104600,136500 110800,143200 6700,6400 22200,25800 35300,43400 66400,88700 207000,251000 307200,353600 26300,26800 51200,52200 54800,56500 3900,3700 18400,20000 32600,35200 13800,15200 25600,29000 25700,30100 1000,5400 139100,150500 186300,195700 62500,60100 133700,119800 181400,152800 62200,42500 154000,97000 162100,95600 3100,-600 7200,-5700 9600,-11100 3900,-12200 -6500,-17600 124900,60800 120800,71900 144500,83800 195100,99000 43200,12900 81200,16100 79700,7500 -1800,-10100 -49200,-53600 -110100,-101900 -128800,-100900 -235800,-198500 -349000,-317000 -87800,-91600 -102500,-109300 -129300,-161000 -13100,-24600 -27800,-51900 -32100,-60000 -4200,-8000 -7200,-15800 -6300,-17100 800,-1200 35700,33500 77500,76800 68300,70800 166300,166700 273500,268000 20000,19200 71800,65700 114800,103300 43200,37800 90100,79100 104600,92000 13800,13000 28700,25200 32500,27900 3700,2100 30000,23400 57700,46100 27900,23300 52000,41100 52800,39200 2200,-2600 -22400,-32500 -58600,-72300 -52100,-57100 -147700,-165000 -148200,-167600 -100,-1000 68300,45900 152700,105500 122800,86600 208800,140800 283500,176700l0 -79900 -6900 -4900c-207400,-146600 -250000,-178900 -353400,-264900 -75600,-62700 -203900,-176500 -234800,-207900 -5400,-5700 -28700,-28200 -51800,-49500 -111500,-103400 -217500,-213200 -376200,-390500 -8200,-9000 -28400,-33000 -45200,-52800 -16700,-19600 -39700,-46900 -50900,-60000 -116100,-133300 -368500,-472400 -373500,-501300 -700,-3200 -6100,-12200 -11900,-19900 -5100,-7400 -25900,-37400 -45300,-66600 -58900,-88900 -108400,-164000 -140400,-213600 -32500,-49500 -45400,-69700 -75800,-113500 -40100,-58600 -116500,-175900 -122400,-187600 -5200,-10700 -4900,-11900 4300,-10100 67100,14000 113700,5900 109200,-19300 -700,-3800 300,-13800 1600,-22300 3000,-14400 3900,-15000 14600,-8200 29700,18600 124900,27100 162600,15000l17600 -6400 -15800 -67900c-13700,-58800 -15000,-69100 -8400,-73000 3900,-2400 27200,-2000 51500,1400 60400,8100 104100,8200 107500,-200 1600,-3600 -4500,-38300 -12900,-76600l-15600 -70100 46900 -5500 47200 -5000 -18200 -81700 -18300 -81800 39800 -5400 39900 -5400 -15300 -77300c-9200,-42500 -13800,-78200 -11700,-78400 2800,0 19100,1500 36200,4600 35800,5800 75200,1000 76700,-9600 500,-3500 -10700,-60500 -23900,-126600 -21500,-106000 -26200,-123300 -41900,-149400 -9400,-15900 -16400,-30800 -15000,-32100 1300,-1800 20700,4600 42600,14000 64600,27800 91500,36300 130000,41600 38400,5400 75200,1600 79200,-7800 1000,-2900 -5300,-26100 -14100,-51100 -8800,-24800 -21300,-64700 -27100,-87800 -5600,-23300 -14200,-56100 -18800,-72400l-8100 -30500 16000 3100c8500,1400 28800,6600 44600,11600 56400,17000 161000,18400 158100,1900 -500,-3200 -9600,-26000 -19500,-50700 -10400,-24600 -22700,-63800 -28100,-87700l-9100 -42500 54100 -15700c29800,-8500 55400,-17500 56700,-19300 1300,-2000 -4900,-21800 -13700,-43400 -9000,-22200 -24700,-68000 -35000,-101400 -9900,-33700 -23700,-68100 -30100,-76400 -15800,-20900 -12500,-31000 9800,-34900 25800,-4500 73700,-33400 77900,-46800 2200,-5900 400,-29200 -3600,-51700 -9500,-54100 -37200,-104500 -84800,-152300 -34300,-34800 -152600,-120400 -200500,-144600 -12600,-6600 -23200,-13600 -23600,-15700 -400,-2100 24000,-900 54400,2000 75900,8200 209200,6700 263200,-2800 50400,-8900 109900,-31500 138000,-53000 25400,-18800 53700,-55900 66800,-87400 11900,-29600 11600,-47300 -2500,-55300 -5000,-3000 -9600,-7100 -10000,-9200 -400,-2700 13300,-15600 30200,-29600 35600,-29400 79200,-83000 86900,-108100 7400,-23900 800,-32600 -45900,-62500 -22400,-14300 -40000,-26500 -39100,-27900 1000,-1300 20200,-10800 42000,-21700 69700,-33200 108600,-66100 141700,-116600 29000,-44900 50000,-98200 46300,-119100 -1200,-7000 -16300,-20800 -37000,-34300 -38700,-25700 -38500,-24600 3800,-50300 74500,-44000 149400,-132300 172900,-203200 10200,-32200 10200,-32700 -2000,-42100 -7000,-5400 -29200,-15400 -49200,-22700 -20500,-7000 -37200,-14000 -37500,-15000 -100,-1100 22100,-18800 50000,-39200 66300,-49200 120600,-101300 155100,-149800 28000,-38600 55200,-87500 53500,-97300 -3500,-19700 -195700,-17800 -348200,3600 -50000,7100 -90700,10500 -91100,8300 -1500,-8000 18200,-21500 202300,-135500 129300,-80500 236000,-154700 332400,-231700l0 -156700c-95400,22800 -195700,51600 -239700,69600 -12900,5100 -34700,12700 -49500,17100l-26100 7300 34000 -25400c19100,-13800 44200,-30900 56900,-38100 39800,-24100 158700,-110200 206300,-150000 6100,-5100 12100,-10300 18100,-15700l0 -372600c-54300,10100 -113300,22400 -137600,29800 -24600,7600 -67400,21700 -94600,32600 -28000,10500 -51100,17200 -51600,14600 -400,-2100 12800,-15500 29500,-30000 31200,-27000 94700,-89100 115400,-112500 21100,-23600 107300,-148600 106400,-154000 -1200,-7000 -19100,-7600 -81700,-3100 -29400,2300 -63800,4000 -77000,4700l-23100 600 19400 -33600c11900,-20400 17500,-35200 13900,-37800 -17700,-12400 -200900,15500 -299900,45100l0 0 0 100zm-2086400 5001100c23100,14300 93000,114000 113400,161100 10400,24200 19800,49400 21100,56400 2100,11800 1000,12500 -20900,13100 -66700,700 -68200,1500 -90700,21000 -14400,11900 -31100,20300 -48100,24400 -14400,3200 -31800,10500 -38300,17200 -6700,6200 -27000,41200 -45900,78200 -18400,36400 -35600,67100 -37800,67300 -11700,2100 -26500,-50400 -21300,-73900 2500,-10900 5600,-37500 6400,-58000 2600,-47900 5000,-52800 15700,-39200 8600,11200 9000,10500 16200,-17200 13100,-51500 26600,-159700 26700,-212200 -500,-28000 -200,-54100 300,-58000 1200,-8400 83400,7400 103300,19800l0 0 -100 0zm148900 350200c4000,9700 5600,33800 4400,55500 -700,21100 1000,46700 4600,57100 4200,12000 4500,22400 300,30300 -5800,11000 -5800,11000 -8600,-1700 -2900,-13300 -2900,-13300 -16200,8200 -25400,40400 -54600,59400 -65500,41500 -7000,-11500 -3500,-51300 9700,-117100 13900,-68700 22100,-83900 46700,-88300 16100,-2900 18600,-1500 24600,14500l0 0z"/>
  <path class="fil0" d="M29709500 22046700c0,0 -191800,9300 -281900,-56400 -90000,-65700 -257300,-223900 -257300,-223900 -165700,-367400 -472000,-201800 -755700,-357500 -165800,304900 175200,645500 327400,681800 169200,40300 398500,-5200 473700,-15300 75400,-10200 244100,68000 292400,100100 58000,38600 -381300,141400 -820900,429600 -257300,168500 -452300,402300 -571400,481500 -56500,37500 -335200,48800 -362100,274000 -26900,225300 -227300,320700 -185100,514700 42100,194000 84300,295300 143400,404900 59000,109700 126500,135000 126500,135000 325400,-483700 760000,-362400 760000,-1071600 0,-118100 -93900,-199400 -30600,-315300 208200,-380900 1123400,-737700 1143200,-599600 10900,76300 -170500,257000 -190900,454200 -21400,207100 -261000,164400 -268700,580900 -7900,419400 -338600,303400 -173000,1018800 334100,18700 1752200,-570700 788700,-1518300 -255200,-212600 250100,-725200 379500,-797100 181400,-100700 273000,-129200 302700,-136600l0 -306000c-180600,-2300 -635100,268900 -839900,322100z"/>
  <path class="fil0" d="M30549400 25463700c-158300,33600 -356600,80100 -467100,199900 -101300,109600 -261500,219300 -312200,244500 -50600,25400 -130700,-71700 -189800,-113800 -147800,-105600 -443600,15200 -552400,-4200 -495500,-88400 -607500,-16500 -860400,126600 -163900,-221900 -465900,-656700 -1123700,-776000 -18500,15900 -65400,13400 -53100,63200 70400,281500 -161100,676300 97100,1163900 190400,359800 182600,376900 417500,620100 43700,191100 -66400,202500 80100,447000 118500,197700 23200,435900 189800,641100 109700,135000 -21000,202400 -38000,286800 -5900,29700 -68000,500200 -71700,510300 -148700,416900 -235300,231800 -215000,780300 0,0 -164100,224300 -291000,531400 -127100,307000 -211000,632600 -291100,742300 -80100,109700 -164400,248900 -206600,291000 -42100,42200 -219300,139100 -307800,130700 -88700,-8400 -143500,21200 -143500,21200 0,0 -168700,113900 -185500,143300 -17000,29500 -17000,101300 -8400,130800 7500,26300 31800,99200 36900,114600l960400 0c17300,-25100 144900,-207300 191900,-207300 50700,0 63300,-8400 173000,-177200 109700,-168800 215000,-227700 286700,-354200 71700,-126600 202600,-383900 341800,-502000 139100,-118100 261500,-194000 320400,-215100 59100,-21100 84500,-46400 118100,-29600 33800,17000 628500,270000 679000,324800 50700,54900 126600,168800 126600,168800 0,0 -37900,33700 -113800,33700 -76100,0 -109700,16900 -168800,46400 -59000,29500 -122300,88500 -126500,147600 -4200,59000 46400,139100 101300,189800 54800,50600 126500,33800 198200,25200 71700,-8400 257300,-12600 290900,8600 33900,21000 54900,67300 63300,151800 10600,106300 -208100,232600 -210800,388700l841100 0c9300,-14300 51500,-82500 103600,-220000 59000,-156100 113900,-455500 202400,-607400 61000,-104600 99200,-245200 117100,-322500l0 -2911800c-45400,-12900 -210900,-55400 -340600,-30100 -151900,29500 -109700,12600 -80100,-122300 14700,-67800 143400,-206700 126400,-502000 0,0 221900,-88500 264100,-189800 14500,-34600 24000,-62800 30200,-84900l0 -1304200z"/>
  <path class="fil0" d="M21050400 28987000c-52000,109500 76900,273800 147500,358500 535900,643100 861900,1009500 565100,1889500 -12700,37900 29600,63300 71700,33800 205900,-144100 517600,-604700 598900,-843500 63300,-185600 92900,-210900 160300,-257300 314200,47100 659200,-1100 733900,4200 3200,300 219500,153000 227700,160200 0,0 -164400,442900 -189700,501900 -25400,59100 -118100,295200 -130700,341600 -12300,44500 -163600,541000 -176300,582800l165300 0c30300,-48400 450600,-717300 584700,-835200 115000,-101000 328000,-151800 362600,-350700 0,0 223700,110700 539800,80100 316100,-30500 481000,-101200 628300,-219200 147500,-118000 261500,-198200 375500,-232100 113900,-33600 219200,0 312100,29600 92700,29500 181400,84400 400700,206700 219200,122300 250800,153800 396400,198200 145600,44300 198200,16800 198200,16800l-11100 -116200c0,0 -343200,-153700 -516100,-292800 -172900,-139200 -501900,-362800 -539800,-413300 -38000,-50700 -84500,-139200 -84500,-139200 -58300,-1205500 -677000,-1493400 -1324300,-1602800 -29400,-12600 -527200,-1298900 -586200,-1328500 -59000,-29500 -59000,-25300 -63200,0 -34400,206000 274700,1124100 295200,1391800 -59500,133800 -942300,127400 -847800,1062800 15800,155900 42300,189800 -16800,240500 -59100,50600 -282500,177100 -341600,210800 -59100,33800 -303700,185600 -371200,210900 -67500,25400 -198200,12700 -248900,-37900 -54300,-54500 -1216600,-852000 -1315800,-852000l100 0z"/>
  <path class="fil0" d="M2429800 31297300c-129800,-57000 -155300,-149700 -185600,-306100 -454300,-337600 -201900,-939100 198300,-1073000 704300,-1058400 2063400,-274300 2163600,490400 50500,79600 92800,92300 122200,113200 29600,20900 33800,62900 0,88000 -55700,41700 230500,-16400 303700,-234700 42300,-125700 97000,-146600 122400,-180200 25200,-33600 -143400,-909600 -198300,-989200 -54800,-79700 -29600,-113300 8500,-100700 38000,12700 118100,16900 118100,16900l-12600 96300c0,0 37800,138300 67400,199100 29500,60800 84400,211800 84400,211800 0,0 -10600,-161500 -19000,-216000 -8400,-54500 -10600,-79600 14700,-85900 25300,-6200 59100,-8300 78000,16800 19000,25100 10600,85900 14800,121500 4200,35700 25400,192900 42200,253700 16800,60700 54900,297600 73800,322700 18900,25100 31700,35600 54800,54500 59500,48400 197200,40800 265800,108900 41900,41900 38800,80300 105300,60800 35900,-10400 63100,-31100 84200,-22700 31600,12500 56400,51700 27600,68900 -21000,12500 -54700,10400 -90600,16700 -21300,3800 -27000,8200 -30500,15200 -9600,18600 22100,36700 38900,33000 4100,-900 116800,-8500 236100,-44000 35700,6400 47600,106800 4400,103800 -29600,-2100 -67600,-1100 -128700,5200 -61200,6300 -154000,4200 -154000,29300 11600,70300 6800,190800 -111700,236900 -166200,532400 -465600,878300 -871000,1036800 -439200,-3200 -3164600,0 -3400800,0 -47800,-142800 635800,-367700 973600,-447900l0 0z"/>
  <path class="fil0" d="M5100 31615100c0,0 531100,96100 598300,143600l425900 0c98000,-16800 140000,-35100 172200,-92100 41700,-73500 57500,-164400 23400,-229900 -27600,-53200 -123200,-200200 -207700,-229700 -84300,-29600 -89800,-1100 -140300,-17900 -50600,-16800 -101300,-59100 -126500,-84300 -25400,-25300 -8500,-50700 21000,-80100 277400,-277400 750600,-630700 725400,-1075600 -27200,-481200 -329600,-453000 -345800,-619900 -12600,-130800 46300,-75900 46300,-172900 0,-97100 -29400,-291100 67500,-464100 462500,-554100 431700,-714100 438700,-721000 567000,-487000 548800,-599300 649500,-746600 32000,-46900 241500,-206700 313200,-261500 71700,-54900 138100,-84400 209800,-42100 112900,66400 297700,186400 396500,54800 35900,-48000 86500,-111400 73800,-193200 -9500,-60500 66300,-67800 90300,-130000 32300,-83500 62500,-221800 39100,-312800 -15300,-59400 -30800,-63900 -34600,-91500 -8300,-62200 17900,-67500 19700,-111800 3700,-82500 -20000,-159700 -186900,-254900 -96800,-50300 -65400,-252500 -353600,-179600 -155600,39500 -119800,124700 -137200,149800 -37800,54700 -130700,141300 -130700,141300 0,0 -29500,59100 -42100,-92900 117200,-491400 142200,-938600 143400,-940500 111300,-166900 86300,-309300 143400,-476500 59000,-173000 149600,-187700 276200,-284700 58700,-45000 104200,-68800 134300,-138200 4300,-9900 14800,-162100 -53000,-319500 -34900,-80800 69700,-335700 -167700,-341500 -81600,-140600 -95300,-149300 -263400,-147200 -188300,2500 -23300,209800 -327100,231500 -59100,4200 -52700,42200 -48500,80100 8600,78300 36100,194600 1500,270100 -24300,53200 -104900,206500 -172300,206500 -42200,0 -109700,-65400 -181400,-109600 -71700,-44300 -128600,-107600 -164500,-194000 -35800,-86600 -69600,-170900 -90700,-204500 -81800,-130900 -410400,-227600 -419600,-289000 -6300,-42100 1600,-66500 82200,-179200 58300,-81500 165700,-182300 90700,-341700 -16900,-35800 -31600,-46300 -48400,-52600 -17000,-6500 -31900,26800 -46600,43600 -151800,173400 -349500,342400 -556500,454000 -82400,44300 -54900,75900 -128700,65300 -73900,-10500 -54800,25300 -122300,-92700 -106400,-186300 -162600,-357800 -385900,-432400 -66600,-22000 -137200,99100 -192000,162500 -25300,29300 -84300,130700 -84300,194000 0,84700 11700,93100 -24000,255100 0,29600 0,78100 0,78100l0 8218000 0 -100zm2121300 -6976900c0,0 44200,-12700 42100,21100 -2800,44800 -87200,203600 -113800,234000 -29600,33800 -46500,84400 -61200,113900 -14700,29600 -40800,32600 -54800,40100 -14100,7500 -46500,-12600 -63300,-27500 -16800,-14700 -8400,-91600 -12600,-126500 -4200,-34700 80100,-33700 103200,-54700 23300,-21200 90800,-126600 116000,-158300 25400,-31500 44400,-42100 44400,-42100z"/>
 </g>
</svg>
