<?xml version="1.0" encoding="UTF-8"?>
<!DOCTYPE svg PUBLIC "-//W3C//DTD SVG 1.1//EN" "http://www.w3.org/Graphics/SVG/1.1/DTD/svg11.dtd">
<!-- Creator: CorelDRAW 2017 -->
<svg xmlns="http://www.w3.org/2000/svg" xml:space="preserve" width="1096px" height="1059px" version="1.1" style="shape-rendering:geometricPrecision; text-rendering:geometricPrecision; image-rendering:optimizeQuality; fill-rule:evenodd; clip-rule:evenodd"
viewBox="0 0 10521600 10159900"
 xmlns:xlink="http://www.w3.org/1999/xlink">
 <defs>
  <style type="text/css">
   <![CDATA[
    .fil0 {fill:none}
    .fil1 {fill:#613A43}
   ]]>
  </style>
 </defs>
 <g id="Слой_x0020_1">
  <metadata id="CorelCorpID_0Corel-Layer"/>
  <rect class="fil0" width="10521600" height="10159900"/>
  <path class="fil1" d="M5626500 4086500c-239300,133600 -192100,538900 -191200,902500 200,82300 68900,214100 198900,305900 130000,91800 298300,114700 413000,30600 114700,-84100 160600,-137700 214100,-328900 127300,-454500 -331900,-1018300 -634800,-910100zm523900 1434000c-96400,135000 -97200,369700 42100,470400 229100,165500 436300,165200 634800,-99400 184800,-246400 21800,-833600 -191700,-889300 -300900,-78300 -368000,354300 -485200,518300zm-1157100 -1434000c239300,133600 192100,538900 191200,902500 -200,82300 -68800,214100 -198900,305900 -130000,91800 -298300,114700 -413000,30600 -114700,-84100 -160600,-137700 -214100,-328900 -127300,-454500 331900,-1018300 634800,-910100zm-523900 1434000c96400,135000 97300,369700 -42100,470400 -229100,165500 -436300,165200 -634800,-99400 -184800,-246400 -21800,-833600 191800,-889300 300900,-78300 367900,354300 485100,518300zm434000 1567900c-152900,53500 -400000,-50600 -453500,-96500 -143700,-123300 -306800,-226700 -258200,-533300 20500,-129800 132400,-223000 247100,-330000 256500,-239400 307700,-388000 458900,-569800 221900,-222100 591500,-200300 824400,0 151300,181800 202400,330400 458900,569800 114700,107000 226600,200200 247100,330000 48600,306600 -114500,410000 -258100,533300 -53500,45900 -300700,150000 -453600,96500 -292100,-102200 -517200,-103500 -813000,0z"/>
 </g>
</svg>
