<?xml version="1.0" encoding="UTF-8"?>
<!DOCTYPE svg PUBLIC "-//W3C//DTD SVG 1.1//EN" "http://www.w3.org/Graphics/SVG/1.1/DTD/svg11.dtd">
<!-- Creator: CorelDRAW 2017 -->
<svg xmlns="http://www.w3.org/2000/svg" xml:space="preserve" width="1358px" height="1311px" version="1.1" style="shape-rendering:geometricPrecision; text-rendering:geometricPrecision; image-rendering:optimizeQuality; fill-rule:evenodd; clip-rule:evenodd"
viewBox="0 0 10052600 9707100"
 xmlns:xlink="http://www.w3.org/1999/xlink">
 <defs>
  <style type="text/css">
   <![CDATA[
    .fil0 {fill:none}
    .fil1 {fill:#613A43}
   ]]>
  </style>
 </defs>
 <g id="Слой_x0020_1">
  <metadata id="CorelCorpID_0Corel-Layer"/>
  <rect class="fil0" width="10052600" height="9707100"/>
  <path class="fil1" d="M5216100 4187200c-144800,80900 -116200,326100 -115700,546100 100,49800 41600,129500 120300,185100 78700,55500 180500,69400 249900,18500 69400,-50900 97200,-83300 129600,-199000 77000,-275000 -200800,-616200 -384100,-550700zm317000 867700c-58300,81700 -58900,223700 25400,284600 138700,100100 264000,99900 384100,-60200 111900,-149000 13200,-504400 -116000,-538000 -182000,-47400 -222600,214300 -293500,313600zm-700200 -867700c144800,80900 116300,326100 115700,546100 -100,49800 -41600,129500 -120300,185100 -78700,55500 -180500,69400 -249900,18500 -69400,-50900 -97200,-83300 -129600,-199000 -77000,-275000 200900,-616200 384100,-550700zm-317000 867700c58400,81700 58900,223700 -25400,284600 -138700,100100 -264000,99900 -384100,-60200 -111800,-149000 -13200,-504400 116000,-538000 182100,-47400 222600,214300 293500,313600zm262700 948700c-92600,32300 -242100,-30600 -274500,-58400 -86900,-74600 -185600,-137200 -156200,-322700 12400,-78500 80100,-134900 149500,-199700 155200,-144900 186200,-234700 277700,-344800 134300,-134300 357900,-121100 498800,0 91500,110100 122500,199900 277700,344800 69400,64800 137100,121200 149500,199700 29400,185500 -69300,248100 -156200,322700 -32400,27800 -181900,90700 -274400,58400 -176800,-61900 -313000,-62600 -491900,0z"/>
 </g>
</svg>
